<svg xmlns="http://www.w3.org/2000/svg" width="1600" height="900" viewBox="0 0 1600 900">
  <defs>
    <radialGradient id="glowA" cx="15%" cy="8%" r="55%">
      <stop stop-color="#e8b93f" stop-opacity="0.15"/>
      <stop offset="1" stop-color="#e8b93f" stop-opacity="0"/>
    </radialGradient>
    <radialGradient id="glowB" cx="87%" cy="18%" r="55%">
      <stop stop-color="#1db7ff" stop-opacity="0.12"/>
      <stop offset="1" stop-color="#1db7ff" stop-opacity="0"/>
    </radialGradient>
    <linearGradient id="bg" x1="0" x2="1" y1="0" y2="1"><stop stop-color="#07090d"/><stop offset="1" stop-color="#050609"/></linearGradient>
    <linearGradient id="card" x1="0" x2="0" y1="0" y2="1"><stop stop-color="#171b22"/><stop offset="1" stop-color="#0f1218"/></linearGradient>
    <linearGradient id="logo" x1="0" x2="1"><stop stop-color="#11bfff"/><stop offset="0.5" stop-color="#8a31ff"/><stop offset="1" stop-color="#f727d8"/></linearGradient>
    <filter id="shadow" x="-20%" y="-20%" width="140%" height="140%"><feDropShadow dx="0" dy="28" stdDeviation="40" flood-color="#000" flood-opacity="0.38"/></filter>
    <style>
      .txt{font-family:Inter,Arial,sans-serif;fill:#f5f5f5;letter-spacing:0}.muted{fill:#9197a3}.gold{fill:#e8b93f}.green{fill:#6ee795}.red{fill:#ff6574}
      .tiny{font-size:14px}.small{font-size:18px}.h3{font-size:24px;font-weight:850}.h2{font-size:34px;font-weight:900}.hero{font-size:66px;font-weight:950;letter-spacing:-1px}.bold{font-weight:850}.mono{font-family:ui-monospace,SFMono-Regular,Menlo,monospace}
    </style>
  </defs>
  <rect width="1600" height="900" fill="url(#bg)"/>
  <rect width="1600" height="900" fill="url(#glowA)"/>
  <rect width="1600" height="900" fill="url(#glowB)"/>
  <path d="M0 170H1600M0 270H1600M0 370H1600M0 470H1600M0 570H1600M0 670H1600M0 770H1600M160 0V900M320 0V900M480 0V900M640 0V900M800 0V900M960 0V900M1120 0V900M1280 0V900M1440 0V900" stroke="#1b2029" stroke-opacity="0.45"/>

  <g transform="translate(70 34)">
    <path d="M0 56 H1460" stroke="#232832"/>
    <path d="M0 34 C18 4 42 4 58 34 C74 64 98 64 116 34" fill="none" stroke="url(#logo)" stroke-width="13" stroke-linecap="round"/>
    <text x="142" y="24" class="txt bold" font-size="22">Rawali <tspan class="gold">Analytic</tspan></text>
    <text x="142" y="43" class="txt muted tiny" letter-spacing="3">PREDICTION TERMINAL</text>
    <text x="420" y="34" class="txt muted small">Markets</text>
    <text x="500" y="34" class="txt muted small">Portfolio</text>
    <rect x="640" y="8" width="450" height="44" rx="12" fill="#11161d" stroke="#252a35"/>
    <text x="672" y="36" class="txt muted small">Search markets, tickers, countries...</text>
    <rect x="1128" y="9" width="86" height="42" rx="12" fill="#111a14" stroke="#1f4028"/>
    <text x="1148" y="36" class="txt green tiny">Live</text>
    <rect x="1232" y="9" width="106" height="42" rx="12" fill="#12161d" stroke="#252a35"/>
    <text x="1254" y="36" class="txt muted tiny">BNB Chain</text>
    <rect x="1358" y="7" width="102" height="46" rx="13" fill="#e8b93f"/>
    <text x="1382" y="37" class="txt bold tiny" fill="#08090c">Wallet</text>
  </g>

  <g transform="translate(70 126)">
    <text x="0" y="0" class="txt gold tiny bold">OPTION C - RECOMMENDED RAWALI-NATIVE HERO</text>
    <rect x="0" y="28" width="920" height="430" rx="20" fill="url(#card)" stroke="#2a2f3a" filter="url(#shadow)"/>
    <rect x="950" y="28" width="510" height="430" rx="20" fill="url(#card)" stroke="#2a2f3a" filter="url(#shadow)"/>

    <rect x="34" y="62" width="324" height="34" rx="10" fill="#2a2114" stroke="#59451d"/>
    <text x="52" y="85" class="txt gold tiny bold">POLYMARKET LIQUIDITY - BNB ACCESS - AI REPORTS</text>
    <text x="34" y="162" class="txt hero">Trade real-world</text>
    <text x="34" y="230" class="txt hero">outcomes from BNB.</text>
    <text x="36" y="282" class="txt muted small">Deposit on BNB, route into Polymarket liquidity, and unlock</text>
    <text x="36" y="310" class="txt muted small">institutional analysis before you place a ticket.</text>
    <rect x="36" y="346" width="190" height="50" rx="13" fill="#e8b93f"/>
    <text x="66" y="378" class="txt bold small" fill="#08090c">Explore markets</text>
    <rect x="242" y="346" width="160" height="50" rx="13" fill="#10151d" stroke="#2a303c"/>
    <text x="280" y="378" class="txt bold small">Portfolio</text>

    <g transform="translate(36 420)">
      <rect width="190" height="86" rx="14" fill="#121821" stroke="#26303b"/>
      <text x="18" y="30" class="txt muted tiny">Trading balance</text><text x="18" y="64" class="txt h2">$11.86</text>
      <rect x="206" width="190" height="86" rx="14" fill="#121821" stroke="#26303b"/>
      <text x="224" y="30" class="txt muted tiny">Live books</text><text x="224" y="64" class="txt h2">24</text>
      <rect x="412" width="190" height="86" rx="14" fill="#121821" stroke="#26303b"/>
      <text x="430" y="30" class="txt muted tiny">Core categories</text><text x="430" y="64" class="txt h2">5</text>
      <rect x="618" width="230" height="86" rx="14" fill="#121821" stroke="#26303b"/>
      <text x="636" y="30" class="txt muted tiny">Polygon gas</text><text x="636" y="64" class="txt h2 gold">Assisted</text>
    </g>

    <g transform="translate(990 68)">
      <text x="0" y="0" class="txt h2">Bridge route</text>
      <rect x="0" y="26" width="430" height="58" rx="13" fill="#121821" stroke="#29313d"/>
      <text x="18" y="62" class="txt muted small">From</text><text x="324" y="62" class="txt h3">BNB Chain</text>
      <rect x="0" y="96" width="430" height="58" rx="13" fill="#121821" stroke="#29313d"/>
      <text x="18" y="132" class="txt muted small">Into</text><text x="272" y="132" class="txt h3">Polymarket pUSD</text>
      <rect x="0" y="166" width="430" height="58" rx="13" fill="#121821" stroke="#29313d"/>
      <text x="18" y="202" class="txt muted small">Execution</text><text x="300" y="202" class="txt h3 gold">Deposit wallet</text>
      <text x="0" y="274" class="txt h2">Premium intelligence</text>
      <text x="0" y="314" class="txt muted small">GPT-powered market report, news context,</text>
      <text x="0" y="342" class="txt muted small">structural drivers, and risk landscape.</text>
      <rect x="0" y="370" width="430" height="12" rx="6" fill="#202632"/>
      <rect x="0" y="370" width="275" height="12" rx="6" fill="#e8b93f"/>
      <text x="0" y="418" class="txt muted small">Signal readiness</text><text x="364" y="418" class="txt h3 gold">64%</text>
    </g>
  </g>

  <g transform="translate(70 650)">
    <text x="0" y="0" class="txt h2">Featured markets</text>
    <text x="0" y="48" class="txt gold small bold">All</text>
    <text x="66" y="48" class="txt muted small">Entertainment</text>
    <text x="205" y="48" class="txt muted small">Sports</text>
    <text x="295" y="48" class="txt muted small">News</text>
    <text x="368" y="48" class="txt muted small">Crypto</text>
    <text x="450" y="48" class="txt muted small">Geopolitics</text>
    <g transform="translate(0 80)">
      <rect width="350" height="130" rx="14" fill="#171b22" stroke="#2b303a"/>
      <text x="22" y="40" class="txt small bold">BTC Up or Down 5m?</text><text x="270" y="42" class="txt h3">51c</text>
      <text x="22" y="101" class="txt muted small">$2.1M Vol. - Live</text>
      <rect x="370" width="350" height="130" rx="14" fill="#171b22" stroke="#2b303a"/>
      <text x="392" y="40" class="txt small bold">Will Spain win 2026 World Cup?</text><text x="640" y="42" class="txt h3">18c</text>
      <text x="392" y="101" class="txt muted small">$1B Vol.</text>
      <rect x="740" width="350" height="130" rx="14" fill="#171b22" stroke="#2b303a"/>
      <text x="762" y="40" class="txt small bold">US-Iran permanent peace deal?</text><text x="1010" y="42" class="txt h3">75c</text>
      <text x="762" y="101" class="txt muted small">$151M Vol.</text>
      <rect x="1110" width="350" height="130" rx="14" fill="#171b22" stroke="#2b303a"/>
      <text x="1132" y="40" class="txt small bold">Major AI IPO this month?</text><text x="1390" y="42" class="txt h3">63c</text>
      <text x="1132" y="101" class="txt muted small">$8.6M Vol.</text>
    </g>
  </g>
</svg>
